<svg width="40" height="40" viewBox="0 0 40 40" fill="none" xmlns="http://www.w3.org/2000/svg">
<g clip-path="url(#clip0)">
<path d="M0.83503 7.43406C6.32487 12.0834 15.9578 20.2629 18.7891 22.8133C19.1692 23.1575 19.5768 23.3325 20 23.3325C20.4224 23.3325 20.8293 23.1591 21.2085 22.8166C24.0422 20.2637 33.6752 12.0834 39.1651 7.43406C39.5069 7.14516 39.559 6.63734 39.2823 6.28414C38.6426 5.46797 37.6889 5 36.6667 5H3.33339C2.31128 5 1.35745 5.46797 0.717843 6.28422C0.441124 6.63734 0.493233 7.14516 0.83503 7.43406Z" fill="white"/>
<path d="M39.5167 9.95359C39.2213 9.81609 38.8738 9.86406 38.628 10.0741C35.0326 13.1217 30.2955 17.1484 26.7229 20.2213C26.5349 20.3825 26.4292 20.6193 26.4332 20.8675C26.4373 21.1149 26.552 21.3484 26.7457 21.503C30.0652 24.1617 35.0677 27.819 38.6801 30.4183C38.8242 30.5224 38.995 30.5753 39.1667 30.5753C39.297 30.5753 39.4271 30.5452 39.5468 30.4834C39.8252 30.3409 40.0001 30.0544 40.0001 29.7419V10.7096C40 10.3849 39.8112 10.0895 39.5167 9.95359Z" fill="white"/>
<path d="M1.32 30.4183C4.93328 27.819 9.93656 24.1618 13.2552 21.503C13.4489 21.3484 13.5637 21.1148 13.5677 20.8675C13.5718 20.6193 13.466 20.3825 13.278 20.2213C9.70539 17.1484 4.96742 13.1217 1.37211 10.0741C1.12469 9.86406 0.776406 9.81773 0.483438 9.95359C0.188828 10.0895 0 10.3849 0 10.7096V29.742C0 30.0545 0.175 30.341 0.453281 30.4834C0.572891 30.5453 0.703125 30.5754 0.833359 30.5754C1.00508 30.5754 1.17594 30.5225 1.32 30.4183Z" fill="white"/>
<path d="M38.9787 32.6856C35.4899 30.1896 29.0633 25.5363 25.227 22.4227C24.9145 22.168 24.462 22.1761 24.1544 22.4414C23.4017 23.0981 22.7718 23.6516 22.325 24.0535C20.9529 25.2921 19.0486 25.2921 17.6733 24.0519C17.2281 23.6507 16.5983 23.0956 15.8455 22.4413C15.5403 22.1744 15.087 22.1663 14.7737 22.4226C10.9504 25.5256 4.51648 30.1846 1.02203 32.6855C0.827494 32.8255 0.702182 33.0411 0.677807 33.2795C0.654213 33.518 0.733119 33.7548 0.896713 33.9306C1.52749 34.6102 2.41617 35 3.33335 35H36.6667C37.5839 35 38.4717 34.6102 39.1041 33.9306C39.2668 33.7556 39.3466 33.5188 39.323 33.2804C39.2985 33.042 39.1732 32.8256 38.9787 32.6856Z" fill="white"/>
</g>
<defs>
<clipPath id="clip0">
<rect width="40" height="40" fill="white"/>
</clipPath>
</defs>
</svg>
