<svg width="40" height="32" viewBox="0 0 40 32" fill="none" xmlns="http://www.w3.org/2000/svg">
<path d="M39.9217 3.81073C38.4467 4.44886 36.8718 4.88358 35.2135 5.08207C36.9035 4.07977 38.2034 2.50003 38.8184 0.615164C37.2334 1.52561 35.4769 2.18834 33.6069 2.55744C32.1137 0.984262 29.9854 0 27.6222 0C23.094 0 19.4225 3.61388 19.4225 8.06603C19.4225 8.7058 19.4975 9.32096 19.6342 9.90988C12.8178 9.59327 6.77638 6.37146 2.73322 1.501C2.02158 2.6854 1.62327 4.06172 1.62327 5.56108C1.62327 8.36623 3.07321 10.8318 5.26978 12.2803C3.92484 12.2377 2.65989 11.8735 1.5566 11.2698V11.3699C1.5566 15.2823 4.37815 18.5451 8.13299 19.2883C7.44469 19.4703 6.71805 19.5688 5.97308 19.5688C5.44977 19.5688 4.94813 19.5196 4.44648 19.4277C5.4981 22.6315 8.52131 24.9674 12.1195 25.0331C9.31961 27.1968 5.77143 28.4862 1.94992 28.4862C1.29995 28.4862 0.65164 28.4485 0 28.3763C3.64818 30.663 7.94634 32 12.5945 32C27.6838 32 35.9252 19.7033 35.9252 9.05685C35.9252 8.714 35.9252 8.36787 35.9002 8.02338C37.5018 6.89312 38.9 5.46429 40 3.84354L39.9217 3.81073Z" fill="#666666"/>
</svg>
