<svg width="40" height="28" viewBox="0 0 40 28" fill="none" xmlns="http://www.w3.org/2000/svg">
<path d="M39.1649 4.32351C38.9331 3.49148 38.4909 2.73342 37.881 2.12261C37.2712 1.51179 36.5143 1.06887 35.6836 0.836667C32.5658 2.39883e-05 20.0178 2.36891e-05 20.0178 2.36891e-05C20.0178 2.36891e-05 7.50148 -0.0166755 4.35198 0.836667C3.52127 1.06887 2.76442 1.51179 2.15458 2.12261C1.54473 2.73342 1.10252 3.49148 0.870684 4.32351C0.279665 7.52064 -0.0117101 10.7661 0.000360121 14.0175C-0.0094283 17.2567 0.281937 20.4898 0.870684 23.6748C1.10252 24.5069 1.54473 25.2649 2.15458 25.8757C2.76442 26.4866 3.52127 26.9295 4.35198 27.1617C7.46647 28 20.0178 28 20.0178 28C20.0178 28 32.5324 28 35.6836 27.1617C36.5143 26.9295 37.2712 26.4866 37.881 25.8757C38.4909 25.2649 38.9331 24.5069 39.1649 23.6748C39.7414 20.4886 40.0204 17.2556 39.9986 14.0175C40.0227 10.7673 39.7436 7.5218 39.1649 4.32351ZM16.013 20.0143V8.0024L26.4569 14.0175L16.013 20.0143Z" fill="#666666"/>
</svg>
